<svg version="1.1" viewBox="13.144 11.766 28.09 29.468000000000004" xmlns:xlink="http://www.w3.org/1999/xlink" xmlns="http://www.w3.org/2000/svg" style="max-height: 500px" width="28.09" height="29.468000000000004">
<g id="surface1">
<path d="M 17.703125 21.066406 L 17.648438 21.117188 L 17.339844 21.117188 L 17.289062 21.167969 L 17.027344 21.167969 L 16.976562 21.21875 L 16.820312 21.21875 L 16.769531 21.273438 L 16.613281 21.273438 L 16.5625 21.324219 L 16.511719 21.324219 L 16.460938 21.375 L 16.355469 21.375 L 16.304688 21.429688 L 16.199219 21.429688 L 16.148438 21.480469 L 16.097656 21.480469 L 16.046875 21.53125 L 15.992188 21.53125 L 15.941406 21.582031 L 15.890625 21.582031 L 15.835938 21.53125 L 15.785156 21.53125 L 15.835938 21.53125 L 15.890625 21.582031 L 15.835938 21.632812 L 15.785156 21.632812 L 15.734375 21.6875 L 15.683594 21.6875 L 15.632812 21.738281 L 15.578125 21.738281 L 15.476562 21.84375 L 15.421875 21.84375 L 15.320312 21.945312 L 15.269531 21.945312 L 15.0625 22.152344 L 15.007812 22.152344 L 14.855469 22.308594 L 14.804688 22.308594 L 14.542969 22.566406 L 14.542969 22.617188 L 14.335938 22.824219 L 14.335938 22.875 L 14.179688 23.03125 L 14.179688 23.085938 L 14.027344 23.238281 L 14.027344 23.289062 L 13.976562 23.34375 L 13.976562 23.394531 L 13.871094 23.5 L 13.871094 23.550781 L 13.820312 23.601562 L 13.820312 23.652344 L 13.765625 23.703125 L 13.765625 23.757812 L 13.714844 23.808594 L 13.714844 23.914062 L 13.664062 23.964844 L 13.664062 24.015625 L 13.613281 24.066406 L 13.613281 24.171875 L 13.5625 24.222656 L 13.5625 24.328125 L 13.507812 24.378906 L 13.507812 24.480469 L 13.457031 24.53125 L 13.457031 24.6875 L 13.40625 24.742188 L 13.40625 24.945312 L 13.351562 25 L 13.351562 25.359375 L 13.300781 25.414062 L 13.300781 26.242188 L 13.351562 26.292969 L 13.351562 26.65625 L 13.40625 26.707031 L 13.40625 26.914062 L 13.457031 26.964844 L 13.457031 27.171875 L 13.507812 27.226562 L 13.507812 27.328125 L 13.5625 27.378906 L 13.5625 27.484375 L 13.613281 27.535156 L 13.613281 27.640625 L 13.664062 27.691406 L 13.664062 27.742188 L 13.714844 27.792969 L 13.714844 27.898438 L 13.765625 27.949219 L 13.765625 28 L 13.820312 28.054688 L 13.820312 28.105469 L 13.871094 28.15625 L 13.871094 28.207031 L 13.976562 28.3125 L 13.976562 28.363281 L 14.027344 28.414062 L 14.027344 28.46875 L 14.128906 28.570312 L 14.128906 28.621094 L 14.285156 28.777344 L 14.285156 28.828125 L 14.441406 28.984375 L 14.441406 29.035156 L 15.007812 29.605469 L 15.0625 29.605469 L 15.21875 29.761719 L 15.269531 29.761719 L 15.371094 29.863281 L 15.421875 29.863281 L 15.527344 29.96875 L 15.578125 29.96875 L 15.632812 30.019531 L 15.683594 30.019531 L 15.785156 30.125 L 15.835938 30.125 L 15.890625 30.175781 L 15.941406 30.175781 L 15.992188 30.226562 L 16.097656 30.226562 L 16.148438 30.277344 L 16.199219 30.277344 L 16.25 30.328125 L 16.355469 30.328125 L 16.40625 30.382812 L 16.511719 30.382812 L 16.5625 30.433594 L 16.664062 30.433594 L 16.71875 30.484375 L 16.875 30.484375 L 16.925781 30.539062 L 17.183594 30.539062 L 17.234375 30.589844 L 17.597656 30.589844 L 17.648438 30.640625 L 18.476562 30.640625 L 18.53125 30.589844 L 18.839844 30.589844 L 18.890625 30.539062 L 19.148438 30.539062 L 19.203125 30.484375 L 19.410156 30.484375 L 19.460938 30.433594 L 19.5625 30.433594 L 19.617188 30.382812 L 19.667969 30.382812 L 19.71875 30.328125 L 19.824219 30.328125 L 19.875 30.277344 L 19.976562 30.277344 L 20.03125 30.226562 L 20.082031 30.226562 L 20.132812 30.175781 L 20.1875 30.175781 L 20.238281 30.125 L 20.289062 30.125 L 20.339844 30.070312 L 20.390625 30.070312 L 20.445312 30.019531 L 20.496094 30.019531 L 20.601562 29.914062 L 20.652344 29.914062 L 20.753906 29.8125 L 20.804688 29.8125 L 20.910156 29.710938 L 20.960938 29.710938 L 21.21875 29.449219 L 21.273438 29.449219 L 21.84375 28.882812 L 21.84375 28.828125 L 22.046875 28.621094 L 22.046875 28.570312 L 22.152344 28.46875 L 22.152344 28.414062 L 22.257812 28.3125 L 22.257812 28.257812 L 22.359375 28.15625 L 22.359375 28.105469 L 22.410156 28.054688 L 22.410156 28 L 22.460938 27.949219 L 22.460938 27.898438 L 22.515625 27.84375 L 22.515625 27.792969 L 22.566406 27.742188 L 22.566406 27.691406 L 22.617188 27.640625 L 22.617188 27.535156 L 22.671875 27.484375 L 22.671875 27.429688 L 22.722656 27.378906 L 22.722656 27.277344 L 22.773438 27.226562 L 22.773438 27.121094 L 22.824219 27.070312 L 22.824219 26.914062 L 22.875 26.863281 L 22.875 26.707031 L 22.929688 26.65625 L 22.929688 26.449219 L 22.980469 26.398438 L 22.980469 25.207031 L 22.929688 25.15625 L 22.929688 24.894531 L 22.875 24.84375 L 22.875 24.6875 L 22.824219 24.636719 L 22.824219 24.480469 L 22.773438 24.429688 L 22.773438 24.328125 L 22.722656 24.273438 L 22.722656 24.171875 L 22.671875 24.117188 L 22.671875 24.066406 L 22.617188 24.015625 L 22.617188 23.914062 L 22.566406 23.859375 L 22.566406 23.808594 L 22.515625 23.757812 L 22.515625 23.703125 L 22.460938 23.652344 L 22.460938 23.601562 L 22.359375 23.5 L 22.359375 23.445312 L 22.308594 23.394531 L 22.308594 23.34375 L 22.203125 23.238281 L 22.203125 23.1875 L 22.101562 23.085938 L 22.101562 23.03125 L 21.945312 22.875 L 21.945312 22.824219 L 21.273438 22.152344 L 21.21875 22.152344 L 21.066406 21.996094 L 21.015625 21.996094 L 20.910156 21.894531 L 20.859375 21.894531 L 20.753906 21.789062 L 20.703125 21.789062 L 20.652344 21.738281 L 20.601562 21.738281 L 20.546875 21.6875 L 20.496094 21.6875 L 20.390625 21.582031 L 20.289062 21.582031 L 20.1875 21.480469 L 20.082031 21.480469 L 20.03125 21.429688 L 19.976562 21.429688 L 19.925781 21.375 L 19.824219 21.375 L 19.773438 21.324219 L 19.617188 21.324219 L 19.5625 21.273438 L 19.460938 21.273438 L 19.410156 21.21875 L 19.253906 21.21875 L 19.203125 21.167969 L 18.945312 21.167969 L 18.890625 21.117188 L 18.53125 21.117188 L 18.476562 21.066406 Z M 17.703125 21.066406" style="stroke:none;fill-rule:nonzero;fill:rgb(16.470589%,95.686275%,75.686276%);fill-opacity:1;"/>
<path d="M 13.714844 11.851562 L 13.664062 11.90625 L 13.300781 11.90625 L 13.300781 13.921875 L 13.351562 13.976562 L 13.351562 14.492188 L 13.40625 14.542969 L 13.40625 14.804688 L 13.457031 14.855469 L 13.457031 15.0625 L 13.507812 15.113281 L 13.507812 15.21875 L 13.457031 15.269531 L 13.40625 15.21875 L 13.40625 15.164062 L 13.40625 15.21875 L 13.457031 15.269531 L 13.507812 15.21875 L 13.5625 15.269531 L 13.5625 15.320312 L 13.613281 15.371094 L 13.613281 15.476562 L 13.664062 15.527344 L 13.664062 15.632812 L 13.714844 15.683594 L 13.714844 15.734375 L 13.765625 15.785156 L 13.765625 15.835938 L 13.820312 15.890625 L 13.820312 15.941406 L 13.871094 15.992188 L 13.871094 16.046875 L 13.976562 16.148438 L 13.976562 16.199219 L 14.027344 16.25 L 14.027344 16.304688 L 14.128906 16.40625 L 14.128906 16.460938 L 14.335938 16.664062 L 14.335938 16.71875 L 14.90625 17.289062 L 14.957031 17.289062 L 15.113281 17.441406 L 15.164062 17.441406 L 15.269531 17.546875 L 15.320312 17.546875 L 15.371094 17.597656 L 15.421875 17.597656 L 15.527344 17.703125 L 15.578125 17.703125 L 15.632812 17.753906 L 15.734375 17.753906 L 15.785156 17.804688 L 15.835938 17.804688 L 15.890625 17.855469 L 15.941406 17.855469 L 15.992188 17.90625 L 16.097656 17.90625 L 16.148438 17.960938 L 16.304688 17.960938 L 16.355469 18.011719 L 16.460938 18.011719 L 16.511719 18.0625 L 16.769531 18.0625 L 16.820312 18.117188 L 26.601562 18.117188 L 26.65625 18.167969 L 27.484375 18.167969 L 27.535156 18.21875 L 27.84375 18.21875 L 27.898438 18.269531 L 28.15625 18.269531 L 28.207031 18.320312 L 28.414062 18.320312 L 28.46875 18.375 L 28.621094 18.375 L 28.671875 18.425781 L 28.777344 18.425781 L 28.828125 18.476562 L 28.984375 18.476562 L 29.035156 18.53125 L 29.140625 18.53125 L 29.191406 18.582031 L 29.296875 18.582031 L 29.347656 18.632812 L 29.449219 18.632812 L 29.5 18.683594 L 29.554688 18.683594 L 29.605469 18.734375 L 29.710938 18.734375 L 29.761719 18.789062 L 29.8125 18.789062 L 29.863281 18.839844 L 29.914062 18.839844 L 29.96875 18.890625 L 30.019531 18.890625 L 30.070312 18.945312 L 30.019531 18.996094 L 30.070312 18.945312 L 30.175781 18.945312 L 30.277344 19.046875 L 30.328125 19.046875 L 30.382812 19.097656 L 30.433594 19.097656 L 30.484375 19.148438 L 30.539062 19.148438 L 30.640625 19.253906 L 30.691406 19.253906 L 30.742188 19.304688 L 30.796875 19.304688 L 30.898438 19.410156 L 30.953125 19.410156 L 31.054688 19.511719 L 31.105469 19.511719 L 31.261719 19.667969 L 31.3125 19.667969 L 31.46875 19.824219 L 31.519531 19.824219 L 31.832031 20.132812 L 31.882812 20.132812 L 32.195312 20.445312 L 32.195312 20.496094 L 32.554688 20.859375 L 32.554688 20.910156 L 32.710938 21.066406 L 32.710938 21.117188 L 32.8125 21.21875 L 32.8125 21.273438 L 32.96875 21.429688 L 32.96875 21.480469 L 33.023438 21.53125 L 33.023438 21.582031 L 33.125 21.6875 L 33.125 21.738281 L 33.175781 21.789062 L 33.175781 21.84375 L 33.226562 21.894531 L 33.226562 21.945312 L 33.332031 22.046875 L 33.332031 22.101562 L 33.382812 22.152344 L 33.382812 22.203125 L 33.4375 22.257812 L 33.4375 22.308594 L 33.488281 22.359375 L 33.488281 22.410156 L 33.539062 22.460938 L 33.539062 22.515625 L 33.589844 22.566406 L 33.589844 22.671875 L 33.640625 22.722656 L 33.640625 22.824219 L 33.695312 22.875 L 33.695312 22.929688 L 33.746094 22.980469 L 33.746094 23.085938 L 33.796875 23.136719 L 33.796875 23.238281 L 33.851562 23.289062 L 33.851562 23.394531 L 33.902344 23.445312 L 33.902344 23.550781 L 33.953125 23.601562 L 33.953125 23.757812 L 34.003906 23.808594 L 34.003906 24.015625 L 34.054688 24.066406 L 34.054688 24.273438 L 34.109375 24.328125 L 34.109375 24.480469 L 34.160156 24.53125 L 34.160156 24.84375 L 34.210938 24.894531 L 34.210938 25.359375 L 34.265625 25.414062 L 34.265625 27.121094 L 34.210938 27.171875 L 34.210938 27.640625 L 34.160156 27.691406 L 34.160156 28 L 34.109375 28.054688 L 34.109375 28.257812 L 34.054688 28.3125 L 34.054688 28.519531 L 34.003906 28.570312 L 34.003906 28.777344 L 33.953125 28.828125 L 33.953125 28.933594 L 33.902344 28.984375 L 33.902344 29.140625 L 33.851562 29.191406 L 33.851562 29.296875 L 33.796875 29.347656 L 33.796875 29.449219 L 33.746094 29.5 L 33.746094 29.605469 L 33.695312 29.65625 L 33.695312 29.761719 L 33.640625 29.8125 L 33.640625 29.863281 L 33.589844 29.914062 L 33.589844 30.019531 L 33.539062 30.070312 L 33.539062 30.125 L 33.488281 30.175781 L 33.488281 30.277344 L 33.4375 30.328125 L 33.4375 30.382812 L 33.382812 30.433594 L 33.382812 30.484375 L 33.332031 30.539062 L 33.332031 30.589844 L 33.28125 30.640625 L 33.28125 30.691406 L 33.226562 30.742188 L 33.226562 30.796875 L 33.125 30.898438 L 33.125 30.953125 L 33.074219 31.003906 L 33.074219 31.054688 L 33.023438 31.105469 L 33.023438 31.15625 L 32.917969 31.261719 L 32.917969 31.3125 L 32.8125 31.417969 L 32.8125 31.46875 L 32.761719 31.519531 L 32.710938 31.46875 L 32.761719 31.519531 L 32.710938 31.570312 L 32.710938 31.625 L 32.554688 31.78125 L 32.554688 31.832031 L 32.296875 32.089844 L 32.296875 32.140625 L 31.933594 32.503906 L 31.882812 32.453125 L 31.933594 32.503906 L 31.46875 32.96875 L 31.417969 32.96875 L 31.210938 33.175781 L 31.15625 33.175781 L 31.003906 33.332031 L 30.953125 33.332031 L 30.847656 33.4375 L 30.796875 33.4375 L 30.691406 33.539062 L 30.640625 33.539062 L 30.539062 33.640625 L 30.484375 33.640625 L 30.433594 33.695312 L 30.382812 33.695312 L 30.328125 33.746094 L 30.277344 33.746094 L 30.226562 33.796875 L 30.175781 33.796875 L 30.125 33.851562 L 30.070312 33.851562 L 30.019531 33.902344 L 29.96875 33.902344 L 29.914062 33.953125 L 29.863281 33.953125 L 29.8125 34.003906 L 29.761719 34.003906 L 29.710938 34.054688 L 29.65625 34.054688 L 29.605469 34.109375 L 29.5 34.109375 L 29.449219 34.160156 L 29.398438 34.160156 L 29.347656 34.210938 L 29.242188 34.210938 L 29.191406 34.265625 L 29.085938 34.265625 L 29.035156 34.316406 L 28.933594 34.316406 L 28.882812 34.367188 L 28.777344 34.367188 L 28.726562 34.417969 L 28.570312 34.417969 L 28.519531 34.46875 L 28.414062 34.46875 L 28.363281 34.523438 L 28.15625 34.523438 L 28.105469 34.574219 L 27.898438 34.574219 L 27.84375 34.625 L 27.640625 34.625 L 27.585938 34.679688 L 27.226562 34.679688 L 27.171875 34.730469 L 17.804688 34.730469 L 17.753906 34.78125 L 17.289062 34.78125 L 17.234375 34.832031 L 16.976562 34.832031 L 16.925781 34.882812 L 16.769531 34.882812 L 16.71875 34.9375 L 16.5625 34.9375 L 16.511719 34.988281 L 16.40625 34.988281 L 16.355469 35.039062 L 16.25 35.039062 L 16.199219 35.09375 L 16.148438 35.09375 L 16.097656 35.144531 L 15.992188 35.144531 L 15.941406 35.195312 L 15.890625 35.195312 L 15.835938 35.246094 L 15.785156 35.246094 L 15.683594 35.351562 L 15.632812 35.351562 L 15.578125 35.402344 L 15.527344 35.402344 L 15.421875 35.507812 L 15.371094 35.507812 L 15.269531 35.609375 L 15.21875 35.609375 L 15.0625 35.765625 L 15.007812 35.765625 L 14.75 36.023438 L 14.699219 36.023438 L 14.648438 36.074219 L 14.648438 36.125 L 14.285156 36.488281 L 14.285156 36.539062 L 14.128906 36.695312 L 14.128906 36.75 L 14.027344 36.851562 L 14.027344 36.902344 L 13.976562 36.953125 L 13.976562 37.007812 L 13.871094 37.109375 L 13.871094 37.164062 L 13.820312 37.214844 L 13.820312 37.265625 L 13.765625 37.316406 L 13.765625 37.367188 L 13.714844 37.421875 L 13.714844 37.523438 L 13.664062 37.578125 L 13.664062 37.628906 L 13.613281 37.679688 L 13.613281 37.78125 L 13.5625 37.835938 L 13.5625 37.9375 L 13.507812 37.992188 L 13.507812 38.09375 L 13.457031 38.144531 L 13.457031 38.300781 L 13.40625 38.351562 L 13.40625 38.558594 L 13.351562 38.609375 L 13.351562 39.078125 L 13.300781 39.128906 L 13.300781 41.09375 L 13.351562 41.09375 L 13.40625 41.042969 L 13.5625 41.042969 L 13.613281 41.09375 L 13.664062 41.042969 L 13.976562 41.042969 L 14.027344 41.09375 L 14.078125 41.042969 L 14.855469 41.042969 L 14.90625 41.09375 L 14.957031 41.042969 L 15.164062 41.042969 L 15.21875 41.09375 L 15.371094 41.09375 L 15.421875 41.042969 L 15.683594 41.042969 L 15.734375 41.09375 L 15.785156 41.09375 L 15.835938 41.042969 L 15.992188 41.042969 L 16.046875 41.09375 L 16.097656 41.09375 L 16.148438 41.042969 L 16.40625 41.042969 L 16.460938 41.09375 L 16.613281 41.09375 L 16.664062 41.042969 L 16.769531 41.042969 L 16.820312 41.09375 L 17.027344 41.09375 L 17.078125 41.042969 L 17.183594 41.042969 L 17.234375 41.09375 L 17.441406 41.09375 L 17.492188 41.042969 L 17.546875 41.042969 L 17.597656 41.09375 L 19.511719 41.09375 L 19.5625 41.042969 L 19.667969 41.042969 L 19.71875 41.09375 L 21.167969 41.09375 L 21.21875 41.042969 L 21.273438 41.09375 L 22.410156 41.09375 L 22.460938 41.042969 L 22.515625 41.042969 L 22.566406 41.09375 L 22.617188 41.042969 L 22.671875 41.09375 L 23.238281 41.09375 L 23.289062 41.042969 L 23.5 41.042969 L 23.550781 41.09375 L 23.652344 41.09375 L 23.703125 41.042969 L 23.757812 41.042969 L 23.808594 41.09375 L 23.859375 41.042969 L 23.914062 41.042969 L 23.964844 41.09375 L 24.222656 41.09375 L 24.273438 41.042969 L 24.328125 41.042969 L 24.378906 41.09375 L 24.480469 41.09375 L 24.53125 41.042969 L 24.636719 41.042969 L 24.6875 41.09375 L 24.742188 41.042969 L 24.792969 41.09375 L 24.894531 41.09375 L 24.945312 41.042969 L 25.207031 41.042969 L 25.257812 41.09375 L 25.308594 41.042969 L 27.277344 41.042969 L 27.328125 40.992188 L 27.792969 40.992188 L 27.84375 40.941406 L 28.257812 40.941406 L 28.3125 40.890625 L 28.570312 40.890625 L 28.621094 40.835938 L 28.882812 40.835938 L 28.933594 40.785156 L 29.191406 40.785156 L 29.242188 40.734375 L 29.449219 40.734375 L 29.5 40.679688 L 29.65625 40.679688 L 29.710938 40.628906 L 29.863281 40.628906 L 29.914062 40.578125 L 30.070312 40.578125 L 30.125 40.527344 L 30.277344 40.527344 L 30.328125 40.476562 L 30.433594 40.476562 L 30.484375 40.421875 L 30.640625 40.421875 L 30.691406 40.371094 L 30.796875 40.371094 L 30.847656 40.320312 L 30.953125 40.320312 L 31.003906 40.265625 L 31.105469 40.265625 L 31.15625 40.214844 L 31.3125 40.214844 L 31.367188 40.164062 L 31.417969 40.164062 L 31.46875 40.113281 L 31.570312 40.113281 L 31.625 40.0625 L 31.675781 40.0625 L 31.726562 40.007812 L 31.832031 40.007812 L 31.882812 39.957031 L 31.933594 39.957031 L 31.984375 39.90625 L 32.089844 39.90625 L 32.140625 39.851562 L 32.195312 39.851562 L 32.246094 39.800781 L 32.296875 39.800781 L 32.347656 39.75 L 32.398438 39.75 L 32.453125 39.699219 L 32.554688 39.699219 L 32.609375 39.648438 L 32.660156 39.648438 L 32.710938 39.59375 L 32.761719 39.59375 L 32.8125 39.542969 L 32.867188 39.542969 L 32.917969 39.492188 L 32.96875 39.492188 L 33.023438 39.4375 L 33.074219 39.4375 L 33.125 39.386719 L 33.175781 39.386719 L 33.28125 39.285156 L 33.332031 39.285156 L 33.382812 39.234375 L 33.4375 39.234375 L 33.488281 39.179688 L 33.539062 39.179688 L 33.640625 39.078125 L 33.695312 39.078125 L 33.746094 39.023438 L 33.796875 39.023438 L 33.902344 38.921875 L 33.953125 38.921875 L 34.003906 38.871094 L 34.054688 38.871094 L 34.160156 38.765625 L 34.210938 38.765625 L 34.316406 38.664062 L 34.367188 38.664062 L 34.523438 38.507812 L 34.574219 38.507812 L 34.679688 38.40625 L 34.730469 38.40625 L 34.832031 38.300781 L 34.882812 38.300781 L 35.09375 38.09375 L 35.144531 38.09375 L 35.296875 37.9375 L 35.351562 37.9375 L 35.609375 37.679688 L 35.660156 37.679688 L 36.023438 37.316406 L 36.074219 37.316406 L 37.214844 36.179688 L 37.214844 36.125 L 37.578125 35.765625 L 37.578125 35.710938 L 37.835938 35.453125 L 37.835938 35.402344 L 37.9375 35.296875 L 37.9375 35.246094 L 38.09375 35.09375 L 38.09375 35.039062 L 38.25 34.882812 L 38.25 34.832031 L 38.351562 34.730469 L 38.351562 34.679688 L 38.457031 34.574219 L 38.457031 34.523438 L 38.558594 34.417969 L 38.558594 34.367188 L 38.664062 34.265625 L 38.664062 34.210938 L 38.765625 34.109375 L 38.765625 34.054688 L 38.820312 34.003906 L 38.820312 33.953125 L 38.921875 33.851562 L 38.921875 33.796875 L 38.972656 33.746094 L 38.972656 33.695312 L 39.023438 33.640625 L 39.023438 33.589844 L 39.128906 33.488281 L 39.128906 33.4375 L 39.179688 33.382812 L 39.179688 33.332031 L 39.234375 33.28125 L 39.234375 33.226562 L 39.285156 33.175781 L 39.285156 33.125 L 39.335938 33.074219 L 39.335938 33.023438 L 39.386719 32.96875 L 39.386719 32.917969 L 39.4375 32.867188 L 39.4375 32.8125 L 39.492188 32.761719 L 39.492188 32.660156 L 39.542969 32.609375 L 39.542969 32.554688 L 39.59375 32.503906 L 39.59375 32.453125 L 39.648438 32.398438 L 39.648438 32.296875 L 39.699219 32.246094 L 39.699219 32.195312 L 39.75 32.140625 L 39.75 32.089844 L 39.800781 32.039062 L 39.800781 31.933594 L 39.851562 31.882812 L 39.851562 31.832031 L 39.90625 31.78125 L 39.90625 31.675781 L 39.957031 31.625 L 39.957031 31.519531 L 40.007812 31.46875 L 40.007812 31.367188 L 40.0625 31.3125 L 40.0625 31.261719 L 40.113281 31.210938 L 40.113281 31.054688 L 40.164062 31.003906 L 40.164062 30.898438 L 40.214844 30.847656 L 40.214844 30.742188 L 40.265625 30.691406 L 40.265625 30.589844 L 40.320312 30.539062 L 40.320312 30.382812 L 40.371094 30.328125 L 40.371094 30.175781 L 40.421875 30.125 L 40.421875 29.96875 L 40.476562 29.914062 L 40.476562 29.761719 L 40.527344 29.710938 L 40.527344 29.5 L 40.578125 29.449219 L 40.578125 29.296875 L 40.628906 29.242188 L 40.628906 28.984375 L 40.679688 28.933594 L 40.679688 28.671875 L 40.734375 28.621094 L 40.734375 28.363281 L 40.785156 28.3125 L 40.785156 27.898438 L 40.835938 27.84375 L 40.835938 27.378906 L 40.890625 27.328125 L 40.890625 25.15625 L 40.835938 25.101562 L 40.835938 24.636719 L 40.785156 24.585938 L 40.785156 24.222656 L 40.734375 24.171875 L 40.734375 23.914062 L 40.679688 23.859375 L 40.679688 23.652344 L 40.628906 23.601562 L 40.628906 23.394531 L 40.578125 23.34375 L 40.578125 23.136719 L 40.527344 23.085938 L 40.527344 22.929688 L 40.476562 22.875 L 40.476562 22.722656 L 40.421875 22.671875 L 40.421875 22.515625 L 40.371094 22.460938 L 40.371094 22.359375 L 40.320312 22.308594 L 40.320312 22.152344 L 40.265625 22.101562 L 40.265625 21.996094 L 40.214844 21.945312 L 40.214844 21.84375 L 40.164062 21.789062 L 40.164062 21.6875 L 40.113281 21.632812 L 40.113281 21.53125 L 40.0625 21.480469 L 40.0625 21.375 L 40.007812 21.324219 L 40.007812 21.21875 L 39.957031 21.167969 L 39.957031 21.117188 L 39.90625 21.066406 L 39.90625 21.015625 L 39.851562 20.960938 L 39.851562 20.859375 L 39.800781 20.804688 L 39.800781 20.703125 L 39.75 20.652344 L 39.75 20.601562 L 39.699219 20.546875 L 39.699219 20.496094 L 39.648438 20.445312 L 39.648438 20.339844 L 39.59375 20.289062 L 39.59375 20.238281 L 39.542969 20.1875 L 39.542969 20.132812 L 39.492188 20.082031 L 39.492188 20.03125 L 39.4375 19.976562 L 39.4375 19.925781 L 39.386719 19.875 L 39.386719 19.824219 L 39.335938 19.773438 L 39.335938 19.71875 L 39.285156 19.667969 L 39.285156 19.617188 L 39.234375 19.5625 L 39.234375 19.511719 L 39.179688 19.460938 L 39.179688 19.410156 L 39.128906 19.359375 L 39.128906 19.304688 L 39.023438 19.203125 L 39.023438 19.148438 L 38.972656 19.097656 L 38.972656 19.046875 L 38.921875 18.996094 L 38.921875 18.945312 L 38.871094 18.890625 L 38.871094 18.839844 L 38.765625 18.734375 L 38.765625 18.683594 L 38.664062 18.582031 L 38.664062 18.53125 L 38.609375 18.476562 L 38.609375 18.425781 L 38.507812 18.320312 L 38.507812 18.269531 L 38.40625 18.167969 L 38.40625 18.117188 L 38.300781 18.011719 L 38.300781 17.960938 L 38.195312 17.855469 L 38.195312 17.804688 L 38.042969 17.648438 L 38.042969 17.597656 L 37.886719 17.441406 L 37.886719 17.390625 L 37.679688 17.183594 L 37.679688 17.132812 L 37.472656 16.925781 L 37.472656 16.875 L 37.058594 16.460938 L 37.058594 16.40625 L 36.28125 15.632812 L 36.230469 15.632812 L 36.179688 15.578125 L 36.179688 15.527344 L 36.125 15.527344 L 35.867188 15.269531 L 35.816406 15.269531 L 35.558594 15.007812 L 35.507812 15.007812 L 35.296875 14.804688 L 35.246094 14.804688 L 35.09375 14.648438 L 35.039062 14.648438 L 34.882812 14.492188 L 34.832031 14.492188 L 34.730469 14.390625 L 34.679688 14.390625 L 34.574219 14.285156 L 34.523438 14.285156 L 34.417969 14.179688 L 34.367188 14.179688 L 34.265625 14.078125 L 34.210938 14.078125 L 34.160156 14.027344 L 34.109375 14.027344 L 34.003906 13.921875 L 33.953125 13.921875 L 33.902344 13.871094 L 33.851562 13.871094 L 33.746094 13.765625 L 33.695312 13.765625 L 33.640625 13.714844 L 33.589844 13.714844 L 33.539062 13.664062 L 33.488281 13.664062 L 33.4375 13.613281 L 33.382812 13.613281 L 33.332031 13.5625 L 33.28125 13.5625 L 33.175781 13.457031 L 33.125 13.457031 L 33.074219 13.40625 L 33.023438 13.40625 L 32.96875 13.351562 L 32.917969 13.351562 L 32.867188 13.300781 L 32.8125 13.300781 L 32.761719 13.25 L 32.660156 13.25 L 32.609375 13.199219 L 32.554688 13.199219 L 32.503906 13.148438 L 32.453125 13.148438 L 32.398438 13.09375 L 32.347656 13.09375 L 32.296875 13.042969 L 32.195312 13.042969 L 32.140625 12.992188 L 32.089844 12.992188 L 32.039062 12.9375 L 31.933594 12.9375 L 31.882812 12.886719 L 31.832031 12.886719 L 31.78125 12.835938 L 31.675781 12.835938 L 31.625 12.785156 L 31.519531 12.785156 L 31.46875 12.734375 L 31.367188 12.734375 L 31.3125 12.679688 L 31.261719 12.679688 L 31.210938 12.628906 L 31.105469 12.628906 L 31.054688 12.578125 L 30.953125 12.578125 L 30.898438 12.523438 L 30.742188 12.523438 L 30.691406 12.472656 L 30.589844 12.472656 L 30.539062 12.421875 L 30.433594 12.421875 L 30.382812 12.371094 L 30.226562 12.371094 L 30.175781 12.320312 L 30.019531 12.320312 L 29.96875 12.265625 L 29.761719 12.265625 L 29.710938 12.214844 L 29.554688 12.214844 L 29.5 12.164062 L 29.242188 12.164062 L 29.191406 12.109375 L 28.933594 12.109375 L 28.882812 12.058594 L 28.570312 12.058594 L 28.519531 12.007812 L 28.105469 12.007812 L 28.054688 11.957031 L 27.484375 11.957031 L 27.429688 11.90625 L 23.652344 11.90625 L 23.601562 11.851562 L 23.550781 11.90625 L 19.875 11.90625 L 19.824219 11.851562 L 19.773438 11.90625 L 17.390625 11.90625 L 17.339844 11.851562 L 17.289062 11.90625 L 16.25 11.90625 L 16.199219 11.851562 L 16.097656 11.851562 L 16.046875 11.90625 L 15.890625 11.90625 L 15.835938 11.851562 L 15.734375 11.851562 L 15.683594 11.90625 L 15.320312 11.90625 L 15.269531 11.851562 L 15.21875 11.90625 L 14.492188 11.90625 L 14.441406 11.851562 L 14.390625 11.90625 L 13.765625 11.90625 Z M 13.714844 11.851562" style="stroke:none;fill-rule:nonzero;fill:rgb(16.470589%,95.686275%,75.686276%);fill-opacity:1;"/>
</g>
</svg>